<?xml version="1.0" encoding="UTF-8"?>
<svg version="1.1" xmlns="http://www.w3.org/2000/svg" width="500" height="500">
<path d="M0 0 C0.72251953 0.00451172 1.44503906 0.00902344 2.18945312 0.01367188 C3.93883944 0.02525721 5.68818199 0.04318238 7.4375 0.0625 C8.88596712 2.95943425 7.71590975 4.92776836 6.9296875 7.921875 C5.13523867 15.72630326 7.54907302 22.35827785 11.0625 29.25 C15.67170769 34.70827227 20.6949186 38.189352 27.875 39.125 C35.85719341 39.43846622 42.48403866 37.45782434 48.4375 32.0625 C49.0975 32.0625 49.7575 32.0625 50.4375 32.0625 C50.53546875 32.78695312 50.6334375 33.51140625 50.734375 34.2578125 C52.14329493 43.36720862 55.01273208 48.60756847 62.4375 54.0625 C66.31648232 56.0517217 70.1280784 56.55550922 74.4375 57.0625 C74.2209375 57.8978125 74.2209375 57.8978125 74 58.75 C71.96443776 67.11842256 71.41695951 74.18485563 75.4375 82.0625 C79.22070901 88.02392027 83.68578301 90.20699217 90.4375 92.0625 C93.7703025 92.6020966 97.06538929 92.91900593 100.4375 93.0625 C103.06997 100.03018845 102.74041013 107.00635269 102.6875 114.375 C102.68439819 115.04445648 102.68129639 115.71391296 102.67810059 116.40365601 C102.6201631 127.05603639 102.28552014 137.55649277 100.4375 148.0625 C100.31391113 148.76584473 100.19032227 149.46918945 100.06298828 150.19384766 C98.0213314 161.18909799 94.34890942 171.04233534 89.4375 181.0625 C88.96441406 182.04863281 88.49132812 183.03476562 88.00390625 184.05078125 C84.0675801 191.75616757 78.83441671 198.34752442 73.4375 205.0625 C72.75171875 205.94550781 72.0659375 206.82851563 71.359375 207.73828125 C68.41689522 211.29676798 64.96805696 214.10496537 61.4375 217.0625 C60.72980469 217.68125 60.02210938 218.3 59.29296875 218.9375 C32.38527757 241.67381146 0.04197539 247.07096557 -34.23632812 244.89257812 C-58.98525964 242.39335627 -82.3909625 228.39967935 -99.5625 211.0625 C-100.19671875 210.4746875 -100.8309375 209.886875 -101.484375 209.28125 C-120.15534276 191.72734868 -132.20861695 164.17483966 -133.76586914 138.7409668 C-134.74594242 104.40401362 -126.44400747 75.65921447 -104.5625 49.0625 C-104.00304687 48.33804688 -103.44359375 47.61359375 -102.8671875 46.8671875 C-82.33386177 21.38109978 -44.83029518 4.36344368 -12.9453125 0.4375 C-8.6234795 0.00565147 -4.33991178 -0.05287615 0 0 Z M-46.3125 102.9375 C-51.09047411 108.69949623 -54.33237763 114.03064125 -53.94921875 121.70703125 C-52.30254986 131.73674179 -46.63123954 141.01964985 -38.8828125 147.45703125 C-28.74993168 154.46816596 -17.92395173 156.6271619 -5.8046875 154.6015625 C4.25695774 151.92055985 13.20973691 145.40949623 18.98046875 136.74609375 C22.91815095 129.69797352 23.77969325 123.90467087 21.62109375 116.1171875 C17.38567338 104.5767738 9.54639386 96.26240776 -1.5625 91.0625 C-18.30864361 84.92224734 -34.57964021 90.26004557 -46.3125 102.9375 Z " fill="#EF5181" transform="translate(265.5625,126.9375)"/>
<path d="M0 0 C0.66 0.33 1.32 0.66 2 1 C1.14277344 1.7734375 0.28554687 2.546875 -0.59765625 3.34375 C-9.80598178 11.68384515 -9.80598178 11.68384515 -18 21 C-18.55816406 21.70898438 -19.11632812 22.41796875 -19.69140625 23.1484375 C-38.52474662 48.51235451 -45.46125218 80.3220253 -41.375 111.3984375 C-37.74240616 133.94188751 -27.29803644 156.86559846 -11 173 C-10.195625 173.845625 -9.39125 174.69125 -8.5625 175.5625 C-7.716875 176.366875 -6.87125 177.17125 -6 178 C-5.29488281 178.67675781 -4.58976562 179.35351562 -3.86328125 180.05078125 C17.15491801 199.68316518 42.32156009 207.79978956 70.65234375 207.25 C100.21882358 206.18010748 126.91612783 195.12454552 147.54296875 173.73046875 C163.65543791 155.82487901 171.53417785 132.2669334 176 109 C176.33 109 176.66 109 177 109 C176.46171278 125.98296171 172.45523263 140.7899753 165 156 C164.52691406 156.98613281 164.05382812 157.97226562 163.56640625 158.98828125 C159.6300801 166.69366757 154.39691671 173.28502442 149 180 C148.31421875 180.88300781 147.6284375 181.76601563 146.921875 182.67578125 C143.97939522 186.23426798 140.53055696 189.04246537 137 192 C136.29230469 192.61875 135.58460938 193.2375 134.85546875 193.875 C107.94777757 216.61131146 75.60447539 222.00846557 41.32617188 219.83007812 C16.57724036 217.33085627 -6.8284625 203.33717935 -24 186 C-24.63421875 185.4121875 -25.2684375 184.824375 -25.921875 184.21875 C-44.59284276 166.66484868 -56.64611695 139.11233966 -58.20336914 113.6784668 C-59.18344242 79.34151362 -50.88150747 50.59671447 -29 24 C-28.44054687 23.27554688 -27.88109375 22.55109375 -27.3046875 21.8046875 C-20.23473448 13.02941918 -9.8857708 5.32310736 0 0 Z " fill="#F5BB87" transform="translate(190,152)"/>
<path d="M0 0 C0.33 0 0.66 0 1 0 C1.33651573 12.05589167 1.35077615 23.30619822 -2 35 C-2.32871094 36.23492187 -2.65742188 37.46984375 -2.99609375 38.7421875 C-8.49621372 58.45156595 -17.97697682 75.14914183 -32 90 C-32.58652344 90.639375 -33.17304688 91.27875 -33.77734375 91.9375 C-42.54562003 101.18029476 -53.5659256 106.75266129 -65 112 C-65.81339844 112.37511719 -66.62679687 112.75023437 -67.46484375 113.13671875 C-74.56508712 115.93048054 -82.46623908 115.73192753 -90 116 C-90 115.34 -90 114.68 -90 114 C-90.66 114.66 -91.32 115.32 -92 116 C-92 116.33 -92 116.66 -92 117 C-108.88638342 119.11649711 -124.4753012 119.40161277 -141 115 C-141 114.34 -141 113.68 -141 113 C-139.69289062 112.54560547 -139.69289062 112.54560547 -138.359375 112.08203125 C-126.90914606 108.05462389 -115.76457523 103.64504496 -105 98 C-104.15050781 97.56042969 -103.30101562 97.12085938 -102.42578125 96.66796875 C-96.29405731 93.41860263 -90.4632778 89.81335789 -84.68261719 85.98339844 C-82.12727211 84.30167561 -79.91854427 82.97284809 -77 82 C-76.34 81.34 -75.68 80.68 -75 80 C-75 80.66 -75 81.32 -75 82 C-74.0925 81.7525 -73.185 81.505 -72.25 81.25 C-69 81 -69 81 -66.625 82.9375 C-66.08875 83.618125 -65.5525 84.29875 -65 85 C-63.00016466 84.20882096 -63.00016466 84.20882096 -61 83 C-60.505 81.515 -60.505 81.515 -60 80 C-61.485 79.505 -61.485 79.505 -63 79 C-64.39712274 77.04402816 -65.73779907 75.04563599 -67 73 C-65.68 72.67 -64.36 72.34 -63 72 C-63 71.34 -63 70.68 -63 70 C-61.00715862 68.6559907 -59.00580329 67.32458708 -57 66 C-55.28769752 64.38025441 -53.62836738 62.7041054 -52 61 C-49.05415646 57.94085478 -46.05667003 54.94842371 -43 52 C-42.34902344 51.34515625 -41.69804687 50.6903125 -41.02734375 50.015625 C-37.98635662 47.29309853 -36.23606326 45.96557383 -32.0546875 46.08203125 C-29.30093776 46.57150851 -26.67368646 47.18413244 -24 48 C-23.67 45.69 -23.34 43.38 -23 41 C-24.65 40.34 -26.3 39.68 -28 39 C-27.67 37.68 -27.34 36.36 -27 35 C-26.34 35 -25.68 35 -25 35 C-24.73316406 34.42507813 -24.46632813 33.85015625 -24.19140625 33.2578125 C-22.95935505 30.92297449 -21.55161725 28.96105816 -19.9375 26.875 C-17.76773805 24.06372737 -17.76773805 24.06372737 -16 21 C-15.34 21 -14.68 21 -14 21 C-13.62488281 19.93265625 -13.62488281 19.93265625 -13.2421875 18.84375 C-11.86979367 15.70191758 -10.17072511 13.24821939 -8.125 10.5 C-7.10792969 9.12328125 -7.10792969 9.12328125 -6.0703125 7.71875 C-4.08412362 5.11047178 -2.10432818 2.51426224 0 0 Z " fill="#EC3F77" transform="translate(366,240)"/>
<path d="M0 0 C0 3.96 0 7.92 0 12 C-1.0621875 12.10957031 -2.124375 12.21914062 -3.21875 12.33203125 C-12.84695143 13.29028161 -12.84695143 13.29028161 -22.00390625 16.21875 C-24.67396785 17.26378389 -27.39062336 17.81371176 -30.1875 18.4375 C-34.76544895 19.53459943 -37.52583777 20.73020026 -41 24 C-44.80538375 26.174505 -46.55505389 27 -51 27 C-51 27.66 -51 28.32 -51 29 C-51.66 29 -52.32 29 -53 29 C-53 29.66 -53 30.32 -53 31 C-54.43526292 32.08169084 -55.92638196 33.08958839 -57.4375 34.0625 C-62.95937035 37.80388091 -67.4271443 42.17465534 -72 47 C-72.55816406 47.52078125 -73.11632812 48.0415625 -73.69140625 48.578125 C-75.25506326 50.08226769 -75.25506326 50.08226769 -76 53 C-76.99 53.495 -76.99 53.495 -78 54 C-79.05281199 55.78234204 -80.04474571 57.60102362 -81 59.4375 C-83.79291553 64.79291553 -83.79291553 64.79291553 -86 67 C-88.83566129 72.77038499 -90.72869562 79.01273226 -92.6875 85.125 C-92.90188721 85.78129395 -93.11627441 86.43758789 -93.3371582 87.11376953 C-96.23332917 96.37181265 -96.21050514 105.55569058 -96.25 115.1875 C-96.270625 116.42564453 -96.29125 117.66378906 -96.3125 118.93945312 C-96.36018832 130.31907843 -94.35090918 140.52520787 -89.9375 151 C-89.43089844 152.216875 -88.92429688 153.43375 -88.40234375 154.6875 C-87.93957031 155.780625 -87.47679687 156.87375 -87 158 C-86.32913635 159.66498174 -85.66066719 161.33094605 -85 163 C-85.66 163.33 -86.32 163.66 -87 164 C-91.59920537 155.8571446 -95.92331503 147.84738266 -99 139 C-99.33128906 138.06929687 -99.66257813 137.13859375 -100.00390625 136.1796875 C-100.35324219 135.17164063 -100.70257813 134.16359375 -101.0625 133.125 C-101.38347656 132.19945312 -101.70445312 131.27390625 -102.03515625 130.3203125 C-104.66686572 121.26382241 -105.35580352 112.73674711 -105.3125 103.3125 C-105.30831055 102.07314697 -105.30412109 100.83379395 -105.29980469 99.55688477 C-105.13902055 86.52225119 -102.95945516 75.10912657 -98 63 C-97.34 63 -96.68 63 -96 63 C-95.90460938 62.14019531 -95.80921875 61.28039062 -95.7109375 60.39453125 C-94.91971239 56.61664874 -93.58259826 54.00385317 -91.625 50.6875 C-91.01914063 49.63949219 -90.41328125 48.59148437 -89.7890625 47.51171875 C-88 45 -88 45 -85 44 C-84.64516418 42.67222727 -84.31531701 41.33770852 -84 40 C-80.59105191 35.30811445 -76.53277103 31.57850345 -72 28 C-71.2575 27.05125 -70.515 26.1025 -69.75 25.125 C-66.52018088 21.10791247 -62.31355786 18.72324126 -58 16 C-55.80742999 14.47004028 -53.61607163 12.9388577 -51.43359375 11.39453125 C-36.68417727 2.94261843 -16.72005869 -0.23609839 0 0 Z " fill="#F2699C" transform="translate(263,139)"/>
<path d="M0 0 C0.33 0 0.66 0 1 0 C0.46171278 16.98296171 -3.54476737 31.7899753 -11 47 C-11.70962891 48.47919922 -11.70962891 48.47919922 -12.43359375 49.98828125 C-16.3699199 57.69366757 -21.60308329 64.28502442 -27 71 C-27.68578125 71.88300781 -28.3715625 72.76601563 -29.078125 73.67578125 C-32.02060478 77.23426798 -35.46944304 80.04246537 -39 83 C-39.70769531 83.61875 -40.41539062 84.2375 -41.14453125 84.875 C-67.98542782 107.55487172 -100.47734528 113.16711141 -134.70605469 110.81396484 C-145.95897851 109.60070494 -156.55775813 105.14284596 -167 101 C-166.67 100.01 -166.34 99.02 -166 98 C-163.09375 97.0859375 -163.09375 97.0859375 -159.5 96.375 C-155.43022525 95.86883414 -155.43022525 95.86883414 -152 94 C-146.50407017 92.84296214 -143.66402415 92.95461918 -138.4140625 95.1640625 C-113.99076774 103.62131991 -81.68888694 97.90885035 -58.80224609 87.25146484 C-33.74101547 75.02196591 -16.78605988 53.77977661 -7.1875 27.9375 C-4.13894807 18.82349009 -1.81116061 9.4361468 0 0 Z " fill="#EEA86C" transform="translate(366,261)"/>
<path d="M0 0 C0.56203125 0.38414062 1.1240625 0.76828125 1.703125 1.1640625 C9.03272535 6.61346102 13.39074299 16.14908642 15 25 C15.29470792 30.48793943 15.21271598 35.62524279 14 41 C13.67 41 13.34 41 13 41 C12.88785156 40.12601563 12.88785156 40.12601563 12.7734375 39.234375 C11.23747237 29.65718068 7.41949603 20.17445174 0.125 13.53125 C-10.32164862 6.00351791 -20.33689906 4.03532171 -33 5 C-43.46792786 7.32473017 -51.82752987 13.29993082 -58 22 C-60.75772304 26.53746763 -62.46568408 30.65684083 -63 36 C-63.33 36 -63.66 36 -64 36 C-64.56952797 24.41959802 -61.62374813 13.96883595 -54.28515625 4.875 C-39.97866904 -10.57249539 -16.86839267 -13.03466707 0 0 Z " fill="#F4BD89" transform="translate(275,212)"/>
<path d="M0 0 C0.33 0 0.66 0 1 0 C0.46171278 16.98296171 -3.54476737 31.7899753 -11 47 C-11.70962891 48.47919922 -11.70962891 48.47919922 -12.43359375 49.98828125 C-16.3699199 57.69366757 -21.60308329 64.28502442 -27 71 C-27.68578125 71.88300781 -28.3715625 72.76601563 -29.078125 73.67578125 C-32.02060478 77.23426798 -35.46944304 80.04246537 -39 83 C-39.70769531 83.61875 -40.41539062 84.2375 -41.14453125 84.875 C-51.14072713 93.32153008 -62.59452699 100.01783309 -74.8125 104.6875 C-75.80757568 105.07156006 -75.80757568 105.07156006 -76.82275391 105.46337891 C-80.20037095 106.67035841 -82.60259244 107.41202077 -86 106 C-84.23141309 105.32739649 -82.46003984 104.66211605 -80.6875 104 C-79.70136719 103.62875 -78.71523438 103.2575 -77.69921875 102.875 C-75 102 -75 102 -72 102 C-72 101.34 -72 100.68 -72 100 C-70.68 100 -69.36 100 -68 100 C-68 99.01 -68 98.02 -68 97 C-64.535 96.01 -64.535 96.01 -61 95 C-61 94.34 -61 93.68 -61 93 C-65.36356079 92.73554177 -68.82518584 93.79708745 -73 95 C-75.66419443 95.4253363 -78.31519689 95.71738915 -81 96 C-78.23048708 94.15365805 -76.02670161 93.37145034 -72.85986328 92.50463867 C-49.03452353 85.90479796 -28.92551835 69.49185486 -16.74609375 48.08203125 C-8.32459626 32.89412826 -3.26519031 17.01164152 0 0 Z " fill="#F0A576" transform="translate(366,261)"/>
<path d="M0 0 C0.33 1.32 0.66 2.64 1 4 C2.423125 4.2165625 2.423125 4.2165625 3.875 4.4375 C7 5 7 5 9 6 C9.05674545 8.83727262 9.07518563 10.43092664 8 13 C5.82236863 14.80760417 3.59948838 16.16689812 1.12890625 17.54296875 C-1.22272896 19.15243652 -1.97367689 20.38091316 -3 23 C-7.17762205 22.53581977 -9.17682961 22.09204376 -12 19 C-12.99 19 -13.98 19 -15 19 C-11.34206101 4.42012971 -11.34206101 4.42012971 -7.125 0.0625 C-4.36752271 -1.31623864 -2.89009221 -0.88308373 0 0 Z " fill="#EC567A" transform="translate(184,208)"/>
<path d="M0 0 C2.375 0.3125 2.375 0.3125 5 1 C5.66 1.99 6.32 2.98 7 4 C9.05003955 5.19232613 9.05003955 5.19232613 11 6 C11 6.66 11 7.32 11 8 C15.32059823 9.09845718 19.61667943 10.17812739 24 11 C24.33 12.32 24.66 13.64 25 15 C27.97 15.66 30.94 16.32 34 17 C34 17.66 34 18.32 34 19 C35.88064828 19.23427504 37.7613191 19.46837026 39.64208984 19.70166016 C41.17191478 19.89522467 42.70096567 20.0950488 44.22900391 20.30224609 C65.1849377 23.38476708 65.1849377 23.38476708 85 18 C85 18.66 85 19.32 85 20 C88.96 19.67 92.92 19.34 97 19 C85.96156314 26.35895791 66.7473313 24.59993579 54 24 C53.30922363 23.9680957 52.61844727 23.93619141 51.90673828 23.90332031 C33.09990147 22.79228779 13.93342766 13.45563988 0 1 C0 0.67 0 0.34 0 0 Z " fill="#E5526B" transform="translate(191,336)"/>
<path d="M0 0 C0.66 0.33 1.32 0.66 2 1 C1.14277344 1.7734375 0.28554687 2.546875 -0.59765625 3.34375 C-9.80598178 11.68384515 -9.80598178 11.68384515 -18 21 C-18.55816406 21.70898438 -19.11632812 22.41796875 -19.69140625 23.1484375 C-24.00561157 28.95862006 -27.22745898 35.13390122 -30.33569336 41.64257812 C-32.81436263 46.81436263 -32.81436263 46.81436263 -35 49 C-34.67 46.03 -34.34 43.06 -34 40 C-32.515 39.505 -32.515 39.505 -31 39 C-30.37907282 37.18703385 -30.37907282 37.18703385 -30 35 C-29.3530635 33.3255761 -28.69040574 31.65697379 -28 30 C-27.34 30 -26.68 30 -26 30 C-26 29.01 -26 28.02 -26 27 C-25.34 27 -24.68 27 -24 27 C-23.690625 26.21625 -23.38125 25.4325 -23.0625 24.625 C-22 22 -22 22 -21 20 C-22.65 20.66 -24.3 21.32 -26 22 C-23.0571936 17.05404568 -19.82518106 13.88663329 -15.25 10.4375 C-14.31945801 9.72352051 -14.31945801 9.72352051 -13.37011719 8.99511719 C-9.06138901 5.72138377 -4.77282399 2.56998215 0 0 Z " fill="#F2C39A" transform="translate(190,152)"/>
<path d="M0 0 C0.33 0 0.66 0 1 0 C0.32014885 21.44930391 -6.32219145 39.53873394 -17 58 C-17.99 58 -18.98 58 -20 58 C-19.01 55.69 -18.02 53.38 -17 51 C-16.34 51 -15.68 51 -15 51 C-14.32643228 48.97929684 -13.65308904 46.95851872 -12.98046875 44.9375 C-12.27780484 42.83230774 -11.57167468 40.72827121 -10.86328125 38.625 C-9.56335175 34.75391658 -8.276801 30.87875962 -7 27 C-6.77489746 26.3188916 -6.54979492 25.6377832 -6.31787109 24.93603516 C-3.6151089 16.71150075 -1.22074244 8.59985717 0 0 Z " fill="#F1A992" transform="translate(366,261)"/>
<path d="M0 0 C1.32 0.66 2.64 1.32 4 2 C4 3.32 4 4.64 4 6 C1.7651871 7.831471 -0.31086678 9.30981971 -2.75 10.8125 C-3.70132812 11.44188477 -3.70132812 11.44188477 -4.671875 12.08398438 C-9.44024759 15.09898663 -9.44024759 15.09898663 -12.21582031 14.6081543 C-12.80459961 14.40746338 -13.39337891 14.20677246 -14 14 C-14.33 12.35 -14.66 10.7 -15 9 C-14.16855469 8.51789063 -13.33710938 8.03578125 -12.48046875 7.5390625 C-11.39378906 6.90742188 -10.30710937 6.27578125 -9.1875 5.625 C-8.10855469 4.99851563 -7.02960938 4.37203125 -5.91796875 3.7265625 C-3.91168907 2.53944654 -1.93965941 1.29310627 0 0 Z " fill="#FEBA48" transform="translate(333,228)"/>
<path d="M0 0 C6.76594019 -0.11381955 13.28837062 0.11978631 20 1 C20 3.31 20 5.62 20 8 C17.60385425 7.85834107 15.20817103 7.71181159 12.8125 7.5625 C12.13896484 7.52318359 11.46542969 7.48386719 10.77148438 7.44335938 C7.10300898 7.21072435 3.58305794 6.82792989 0 6 C0 4.02 0 2.04 0 0 Z " fill="#C1B1CA" transform="translate(290,179)"/>
<path d="M0 0 C3.1268791 1.38132461 5.19920392 2.97903763 7.5625 5.4375 C8.14128906 6.03433594 8.72007812 6.63117188 9.31640625 7.24609375 C10.14978516 8.11427734 10.14978516 8.11427734 11 9 C11.5671875 9.5259375 12.134375 10.051875 12.71875 10.59375 C14 12 14 12 13.9375 14.0625 C13 16 13 16 9 18 C5.04 13.71 1.08 9.42 -3 5 C-1 1 -1 1 0 0 Z " fill="#FEBE3B" transform="translate(292,308)"/>
<path d="M0 0 C1.67542976 0.28604898 3.34385343 0.61781233 5 1 C5 2.65 5 4.3 5 6 C3.453125 6.86625 3.453125 6.86625 1.875 7.75 C-0.62554166 9.15655468 -2.80105109 10.5927778 -5.125 12.3125 C-8 14 -8 14 -10.875 13.75 C-11.57625 13.5025 -12.2775 13.255 -13 13 C-12.84375 10.734375 -12.84375 10.734375 -12 8 C-9.53125 6.015625 -9.53125 6.015625 -6.5 4.25 C-5.4996875 3.65703125 -4.499375 3.0640625 -3.46875 2.453125 C-2.6540625 1.97359375 -1.839375 1.4940625 -1 1 C-0.67 0.67 -0.34 0.34 0 0 Z " fill="#E72A3A" transform="translate(238,311)"/>
<path d="M0 0 C6.46712188 1.16194152 12.09622349 3.1248748 18 6 C17.67 7.65 17.34 9.3 17 11 C12.86523099 12.37825634 10.21908952 10.82520961 6.375 9.25 C5.68148438 8.98445313 4.98796875 8.71890625 4.2734375 8.4453125 C2.4758761 7.72207491 0.73221585 6.86817501 -1 6 C-1.33 5.01 -1.66 4.02 -2 3 C-1.34 2.01 -0.68 1.02 0 0 Z " fill="#A5C1D8" transform="translate(325,275)"/>
<path d="M0 0 C2.50867002 2.50867002 2.8766777 4.63003309 4 8 C5.02287759 10.08116249 6.09282009 12.12795541 7.1953125 14.16796875 C8 16 8 16 8 19 C6.02 19.66 4.04 20.32 2 21 C0.80057395 18.40074504 -0.38472821 15.79654493 -1.5625 13.1875 C-2.07586914 12.08051758 -2.07586914 12.08051758 -2.59960938 10.95117188 C-2.91865234 10.23896484 -3.23769531 9.52675781 -3.56640625 8.79296875 C-3.86490479 8.1383667 -4.16340332 7.48376465 -4.47094727 6.80932617 C-5 5 -5 5 -4 2 C-1.9375 0.8125 -1.9375 0.8125 0 0 Z " fill="#ADBED5" transform="translate(192,270)"/>
<path d="M0 0 C3.59134257 0.68933353 6.4342523 2.17871859 9.625 3.9375 C10.58664063 4.46214844 11.54828125 4.98679688 12.5390625 5.52734375 C15 7 15 7 17 9 C16.625 11.625 16.625 11.625 16 14 C9.61401214 12.61174177 4.33723398 9.76264771 -1 6 C-1.33 5.34 -1.66 4.68 -2 4 C-1.0625 1.875 -1.0625 1.875 0 0 Z " fill="#E32A3E" transform="translate(226,164)"/>
<path d="M0 0 C2.20750781 2.05625996 3.71933014 4.01731213 5.1640625 6.66015625 C5.55956299 7.36688477 5.95506348 8.07361328 6.36254883 8.80175781 C6.77915771 9.54780273 7.1957666 10.29384766 7.625 11.0625 C11.73765389 18.24807058 16.09577585 24.1550552 22 30 C22.804375 30.845625 23.60875 31.69125 24.4375 32.5625 C30.66008402 38.48154334 36.86748971 44.19330828 44 49 C43.01 49.495 43.01 49.495 42 50 C41.52949219 49.65066406 41.05898437 49.30132812 40.57421875 48.94140625 C39.95160156 48.48636719 39.32898438 48.03132813 38.6875 47.5625 C38.07261719 47.11003906 37.45773438 46.65757812 36.82421875 46.19140625 C34.90322899 44.82663692 34.90322899 44.82663692 32 44 C30.65080468 42.34614767 29.31866272 40.678298 28 39 C27.2575 38.443125 26.515 37.88625 25.75 37.3125 C25.1725 36.879375 24.595 36.44625 24 36 C24 35.34 24 34.68 24 34 C23.443125 33.7525 22.88625 33.505 22.3125 33.25 C17.32803952 30.55569704 14.99656218 28.24097572 13 23 C12.17800944 21.9327598 11.32100003 20.89190601 10.4375 19.875 C8 17 8 17 7 14 C6.34 13.67 5.68 13.34 5 13 C4.30959426 11.34302621 3.6469365 9.6744239 3 8 C2.46375 7.13375 1.9275 6.2675 1.375 5.375 C0 3 0 3 0 0 Z " fill="#FDAB91" transform="translate(157,295)"/>
<path d="M0 0 C11.82040802 -0.62121852 21.42102973 0.59806843 31 8 C31.56203125 8.38414062 32.1240625 8.76828125 32.703125 9.1640625 C40.03272535 14.61346102 44.39074299 24.14908642 46 33 C46.14014886 36.67390213 46.11959061 40.32591073 46 44 C45.67 44 45.34 44 45 44 C44.94392578 42.96939453 44.94392578 42.96939453 44.88671875 41.91796875 C44.82097656 41.01691406 44.75523437 40.11585938 44.6875 39.1875 C44.62949219 38.29417969 44.57148438 37.40085938 44.51171875 36.48046875 C43.92036928 33.61400375 43.07835266 32.95012525 41 31 C40.375 29.09765625 40.375 29.09765625 40 27 C39.7525 25.88431641 39.7525 25.88431641 39.5 24.74609375 C39.1661279 23.20454367 38.83279626 21.66287644 38.5 20.12109375 C37.9939305 17.83158006 37.9939305 17.83158006 37 15 C35.67661368 14.31379969 34.34050052 13.65213539 33 13 C31.63875 11.824375 31.63875 11.824375 30.25 10.625 C21.49270623 3.14710935 11.15602207 1.69610647 0 1 C0 0.67 0 0.34 0 0 Z " fill="#FCAB91" transform="translate(244,204)"/>
<path d="M0 0 C-0.26455868 3.47533903 -0.66766514 4.70669776 -3.328125 7.0546875 C-4.29234375 7.65539062 -5.2565625 8.25609375 -6.25 8.875 C-7.20390625 9.49117187 -8.1578125 10.10734375 -9.140625 10.7421875 C-12.35247363 12.15504988 -13.71797463 12.06605934 -17 11 C-17.33 9.68 -17.66 8.36 -18 7 C-6.66287016 -1.03644647 -6.66287016 -1.03644647 0 0 Z " fill="#FEC145" transform="translate(192,217)"/>
<path d="M0 0 C1.305239 3.91571701 0.32239848 5.03892997 -1.4375 8.6875 C-1.91058594 9.68136719 -2.38367188 10.67523438 -2.87109375 11.69921875 C-3.24363281 12.45847656 -3.61617188 13.21773438 -4 14 C-4.66 14 -5.32 14 -6 14 C-6.16435547 14.84884766 -6.16435547 14.84884766 -6.33203125 15.71484375 C-6.49058594 16.44832031 -6.64914062 17.18179687 -6.8125 17.9375 C-6.96332031 18.66839844 -7.11414063 19.39929688 -7.26953125 20.15234375 C-7.51058594 20.76207031 -7.75164062 21.37179687 -8 22 C-8.99 22.33 -9.98 22.66 -11 23 C-11.73323796 25.01508358 -11.73323796 25.01508358 -12 27 C-12.99 27 -13.98 27 -15 27 C-15 27.66 -15 28.32 -15 29 C-19.30232558 33.76744186 -19.30232558 33.76744186 -23 35 C-23 35.66 -23 36.32 -23 37 C-23.99 37.495 -23.99 37.495 -25 38 C-25.0825 38.639375 -25.165 39.27875 -25.25 39.9375 C-25.4975 40.618125 -25.745 41.29875 -26 42 C-28.8125 43.1875 -28.8125 43.1875 -32 44 C-32.78375 44.20625 -33.5675 44.4125 -34.375 44.625 C-34.91125 44.74875 -35.4475 44.8725 -36 45 C-32.89732246 41.79389987 -29.66719951 38.81762619 -26.3125 35.875 C-14.4490999 25.15569635 -7.00009407 14.25539991 0 0 Z " fill="#F99878" transform="translate(355,298)"/>
<path d="M0 0 C1.22918256 3.68754767 0.60769716 4.62108536 -0.75 8.1875 C-6.05192764 23.57960134 -6.63402627 38.85671692 -7 55 C-7.33 55 -7.66 55 -8 55 C-8.58605603 15.61703479 -8.58605603 15.61703479 -1 1 C-0.67 0.67 -0.34 0.34 0 0 Z " fill="#FEAD95" transform="translate(154,201)"/>
<path d="M0 0 C2.375 0.3125 2.375 0.3125 5 1 C5.66 1.99 6.32 2.98 7 4 C9.05003955 5.19232613 9.05003955 5.19232613 11 6 C11 6.66 11 7.32 11 8 C15.32059823 9.09845718 19.61667943 10.17812739 24 11 C24.061875 11.61875 24.12375 12.2375 24.1875 12.875 C24.828919 15.27761141 24.828919 15.27761141 27.5625 16.25 C28.366875 16.4975 29.17125 16.745 30 17 C29.34 17.33 28.68 17.66 28 18 C25.43989727 16.93908375 23.02522703 15.81913746 20.5625 14.5625 C19.84763428 14.20140137 19.13276855 13.84030273 18.39624023 13.46826172 C2.6555693 5.31113861 2.6555693 5.31113861 0 0 Z " fill="#E45F74" transform="translate(191,336)"/>
<path d="M0 0 C0.99 0.33 1.98 0.66 3 1 C2.443125 1.70382813 1.88625 2.40765625 1.3125 3.1328125 C-6.12022853 12.75016056 -12.34237343 22.72740073 -17 34 C-18.46726798 30.18510326 -17.43336419 27.70988378 -16 24 C-15.34 24 -14.68 24 -14 24 C-13.87625 23.443125 -13.7525 22.88625 -13.625 22.3125 C-12.94023145 19.77885636 -12.00866237 17.42078968 -11 15 C-10.34 15 -9.68 15 -9 15 C-9 14.01 -9 13.02 -9 12 C-8.34 12 -7.68 12 -7 12 C-6.71125 11.236875 -6.4225 10.47375 -6.125 9.6875 C-5 7 -5 7 -3 4 C-2.34 4 -1.68 4 -1 4 C-0.67 2.68 -0.34 1.36 0 0 Z " fill="#FDAE92" transform="translate(173,167)"/>
<path d="M0 0 C0.33 0.66 0.66 1.32 1 2 C0.06421005 4.35981813 -0.93347808 6.69631264 -2 9 C-2.66 9 -3.32 9 -4 9 C-4.03738281 9.56847656 -4.07476562 10.13695312 -4.11328125 10.72265625 C-4.56763467 16.05908176 -5.77218831 20.08024919 -8 25 C-8.39764263 26.98821313 -8.75455166 28.98732362 -9 31 C-9.33 31 -9.66 31 -10 31 C-10.52838978 20.25607439 -7.98589826 10.98872511 -2 2 C-1.34 1.34 -0.68 0.68 0 0 Z " fill="#FDAE94" transform="translate(221,217)"/>
<path d="M0 0 C0.33 0 0.66 0 1 0 C1.86691078 3.5543342 2.09506514 5.68208987 1.03515625 9.2265625 C-0.07366364 13.26852483 -0.23265004 16.6299642 -0.1875 20.8125 C-0.18105469 21.51318604 -0.17460937 22.21387207 -0.16796875 22.93579102 C-0.09953042 27.57623027 0.22235103 32.13418667 0.77734375 36.73828125 C1.14740348 40.49730906 1.06087252 44.2259037 1 48 C0.67 48 0.34 48 0 48 C-1.77357528 39.93609051 -2.30805286 32.2435057 -2.25 24 C-2.25773438 22.90171875 -2.26546875 21.8034375 -2.2734375 20.671875 C-2.25662113 13.57536849 -1.52428521 6.93046305 0 0 Z " fill="#E46573" transform="translate(149,221)"/>
<path d="M0 0 C1.32 0 2.64 0 4 0 C3.7834375 0.8353125 3.7834375 0.8353125 3.5625 1.6875 C1.53456339 10.02457274 1.63383051 16.71840678 4 25 C0.56213415 22.70808943 0.17444545 21.84897803 -1 18 C-1.33292195 15.65612209 -1.57827872 13.29866761 -1.75 10.9375 C-1.84796875 9.72964844 -1.9459375 8.52179688 -2.046875 7.27734375 C-2.00169071 4.11820849 -1.69076698 2.60768291 0 0 Z " fill="#E1698B" transform="translate(336,184)"/>
<path d="M0 0 C1.65 0 3.3 0 5 0 C5 1.32 5 2.64 5 4 C1.62902617 5.49821059 -0.20442119 6 -4 6 C-4 6.66 -4 7.32 -4 8 C-4.66 8 -5.32 8 -6 8 C-6 8.66 -6 9.32 -6 10 C-7.32 10.33 -8.64 10.66 -10 11 C-8.65463623 6.5969913 -6.83947688 4.528436 -3 2 C-2.01 2 -1.02 2 0 2 C0 1.34 0 0.68 0 0 Z " fill="#FED310" transform="translate(187,217)"/>
<path d="M0 0 C0.97453125 0.00451172 1.9490625 0.00902344 2.953125 0.01367188 C5.34381434 0.02539094 7.7343744 0.04179781 10.125 0.0625 C10.62 1.0525 10.62 1.0525 11.125 2.0625 C9.9184375 2.03929687 8.711875 2.01609375 7.46875 1.9921875 C5.85417291 1.97341335 4.23958906 1.95521493 2.625 1.9375 C1.43777344 1.91236328 1.43777344 1.91236328 0.2265625 1.88671875 C-7.31970659 1.82486409 -13.61989587 3.12230615 -20.375 6.6875 C-21.2309375 7.13351563 -22.086875 7.57953125 -22.96875 8.0390625 C-23.5978125 8.37679687 -24.226875 8.71453125 -24.875 9.0625 C-25.205 8.0725 -25.535 7.0825 -25.875 6.0625 C-25.30910156 5.95292969 -24.74320313 5.84335938 -24.16015625 5.73046875 C-23.05994141 5.49263672 -23.05994141 5.49263672 -21.9375 5.25 C-21.20660156 5.09917969 -20.47570312 4.94835937 -19.72265625 4.79296875 C-19.11292969 4.55191406 -18.50320312 4.31085938 -17.875 4.0625 C-17.545 3.0725 -17.215 2.0825 -16.875 1.0625 C-11.23973035 -0.14234722 -5.72963885 -0.0504643 0 0 Z " fill="#E46074" transform="translate(250.875,202.9375)"/>
<path d="M0 0 C0.66 0 1.32 0 2 0 C2.69071435 6.00537752 0.35277376 9.82053598 -2.5 14.875 C-2.92925781 15.65875 -3.35851562 16.4425 -3.80078125 17.25 C-4.85615731 19.1731297 -5.92262987 21.08913252 -7 23 C-7.99 23 -8.98 23 -10 23 C-8.515 19.535 -8.515 19.535 -7 16 C-6.34 16 -5.68 16 -5 16 C-3.19695845 10.69905784 -1.49276376 5.39691512 0 0 Z " fill="#E5B285" transform="translate(356,296)"/>
<path d="M0 0 C5.61 0 11.22 0 17 0 C17 1.32 17 2.64 17 4 C10.93107371 4.25287193 5.83799592 3.69832609 0 2 C0 1.34 0 0.68 0 0 Z " fill="#97C8DC" transform="translate(292,181)"/>
<path d="M0 0 C1.32 0 2.64 0 4 0 C4.061875 0.94875 4.12375 1.8975 4.1875 2.875 C4.455625 3.90625 4.72375 4.9375 5 6 C7.29534258 7.13545562 7.29534258 7.13545562 10 8 C12.96787035 10.49570916 14.72775457 12.05761199 15.8125 15.8125 C15.874375 16.534375 15.93625 17.25625 16 18 C12.72344492 16.59473786 10.84567314 14.97082527 8.5625 12.25 C7.964375 11.54101562 7.36625 10.83203125 6.75 10.1015625 C5.88375 9.06128906 5.88375 9.06128906 5 8 C4.484375 7.40960938 3.96875 6.81921875 3.4375 6.2109375 C0 2.24609375 0 2.24609375 0 0 Z M15 12 C17 13 17 13 17 13 Z " fill="#EEC29A" transform="translate(155,324)"/>
<path d="M0 0 C5.70709064 0.46588495 9.15939723 1.93757784 14 5 C14 5.99 14 6.98 14 8 C9.15311808 7.21824485 4.6233633 5.60155722 0 4 C0 2.68 0 1.36 0 0 Z " fill="#EE2328" transform="translate(226,167)"/>
<path d="M0 0 C0.33 3.3 0.66 6.6 1 10 C0.34 10 -0.32 10 -1 10 C-1.33 8.35 -1.66 6.7 -2 5 C-2.721875 5.45375 -3.44375 5.9075 -4.1875 6.375 C-6.77935648 7.87251707 -9.1474953 9.09920904 -12 10 C-15 9 -15 9 -17 7 C-16.00419922 6.74476563 -16.00419922 6.74476563 -14.98828125 6.484375 C-10.22862433 5.178075 -4.12729672 0 0 0 Z " fill="#E47193" transform="translate(316,159)"/>
<path d="M0 0 C0.99 0 1.98 0 3 0 C1.53238339 4.49457587 -0.97830424 7.75984913 -4 11.3125 C-4.67675781 12.13717773 -4.67675781 12.13717773 -5.3671875 12.97851562 C-6.52888643 14.36189971 -7.75982695 15.68650591 -9 17 C-9.66 17 -10.32 17 -11 17 C-11 16.34 -11 15.68 -11 15 C-10.34 15 -9.68 15 -9 15 C-8.9175 14.05125 -8.835 13.1025 -8.75 12.125 C-8 9 -8 9 -5.9375 7.625 C-5.298125 7.41875 -4.65875 7.2125 -4 7 C-4 6.34 -4 5.68 -4 5 C-3.01 5 -2.02 5 -1 5 C-0.67 3.35 -0.34 1.7 0 0 Z " fill="#E9B180" transform="translate(344,320)"/>
<path d="M0 0 C3.3 0.33 6.6 0.66 10 1 C9.67 1.66 9.34 2.32 9 3 C6.36 2.67 3.72 2.34 1 2 C0.67 3.32 0.34 4.64 0 6 C4.455 7.98 4.455 7.98 9 10 C5 12 5 12 2 13 C1.34 12.34 0.68 11.68 0 11 C0.66 11 1.32 11 2 11 C2 10.34 2 9.68 2 9 C-0.475 8.01 -0.475 8.01 -3 7 C-2.38722388 4.03824877 -1.74627478 2.61941217 0 0 Z " fill="#DA5F8B" transform="translate(324,274)"/>
<path d="M0 0 C-20.07276254 10.50929976 -20.07276254 10.50929976 -25.3125 9.59765625 C-25.869375 9.40042969 -26.42625 9.20320313 -27 9 C-25.23141309 8.32739649 -23.46003984 7.66211605 -21.6875 7 C-20.70136719 6.62875 -19.71523438 6.2575 -18.69921875 5.875 C-16 5 -16 5 -13 5 C-13 4.34 -13 3.68 -13 3 C-11.68 3 -10.36 3 -9 3 C-9 2.01 -9 1.02 -9 0 C-3.375 -1.125 -3.375 -1.125 0 0 Z " fill="#E6B486" transform="translate(307,358)"/>
<path d="M0 0 C2.54472397 2.54472397 3.24821556 4.9426047 4.5 8.3125 C4.9228125 9.44300781 5.345625 10.57351563 5.78125 11.73828125 C6.1834375 12.81464844 6.585625 13.89101563 7 15 C7.66127071 16.66881493 8.32580605 18.336364 9 20 C8.34 20.33 7.68 20.66 7 21 C5.76213502 18.79826386 4.53247752 16.59277959 3.31640625 14.37890625 C2.28084844 12.5075273 1.20941153 10.6559996 0.125 8.8125 C-1.22765933 5.43085168 -0.9108257 3.47769811 0 0 Z " fill="#F46292" transform="translate(169,282)"/>
<path d="M0 0 C7.425 0.99 7.425 0.99 15 2 C16.56453195 7.47586183 17.22137642 10.57627762 17 16 C16.67 16 16.34 16 16 16 C14.24252386 11.49646738 13.80705592 7.82360189 14 3 C7.565 3.495 7.565 3.495 1 4 C0.67 2.68 0.34 1.36 0 0 Z " fill="#E17395" transform="translate(351,218)"/>
<path d="M0 0 C0.66 0.33 1.32 0.66 2 1 C-0.12245714 2.98195646 -2.24780268 4.96064257 -4.375 6.9375 C-5.27992188 7.78344727 -5.27992188 7.78344727 -6.203125 8.64648438 C-6.78320312 9.18466797 -7.36328125 9.72285156 -7.9609375 10.27734375 C-8.49509277 10.77484131 -9.02924805 11.27233887 -9.57958984 11.78491211 C-11 13 -11 13 -13 14 C-12.87890625 11.2734375 -12.87890625 11.2734375 -12 8 C-9.27734375 5.6640625 -9.27734375 5.6640625 -5.9375 3.625 C-4.83277344 2.93664062 -3.72804687 2.24828125 -2.58984375 1.5390625 C-1.30787109 0.77722656 -1.30787109 0.77722656 0 0 Z " fill="#F8B49E" transform="translate(190,152)"/>
<path d="M0 0 C3.65316671 1.24976756 4.78065836 1.67098753 7 5 C7.14221065 7.60245498 7.18802932 10.09117684 7.125 12.6875 C7.11597656 13.38939453 7.10695313 14.09128906 7.09765625 14.81445312 C7.07413704 16.54311525 7.03826713 18.27160145 7 20 C6.67 20 6.34 20 6 20 C5.90203125 19.39414063 5.8040625 18.78828125 5.703125 18.1640625 C4.5537167 11.72341254 2.62340333 5.98543478 0 0 Z " fill="#F5C3A1" transform="translate(282,233)"/>
<path d="M0 0 C0.66 0 1.32 0 2 0 C2.30292969 0.83402344 2.60585937 1.66804688 2.91796875 2.52734375 C5.20767928 8.6778585 7.57694182 14.47970471 10.984375 20.09765625 C12.03008862 22.05635829 12.55582884 23.83225163 13 26 C10.81754273 23.97351547 9.36333125 22.11036097 8.02734375 19.453125 C7.68509766 18.7725 7.34285156 18.091875 6.99023438 17.390625 C6.46913086 16.33101563 6.46913086 16.33101563 5.9375 15.25 C5.4105957 14.21359375 5.4105957 14.21359375 4.87304688 13.15625 C2.7254489 8.83669567 1.18167004 4.67769902 0 0 Z " fill="#E35E72" transform="translate(153,282)"/>
<path d="M0 0 C0.66 0.33 1.32 0.66 2 1 C0.35 1.66 -1.3 2.32 -3 3 C-2.34 4.65 -1.68 6.3 -1 8 C2.55780196 7.39009109 5.6828589 6.4216319 9 5 C8 7.5 8 7.5 6 10 C3.20625708 10.46837899 0.85778964 10.23424505 -2 10 C-2.33 9.01 -2.66 8.02 -3 7 C-3.99 7.33 -4.98 7.66 -6 8 C-6 7.34 -6 6.68 -6 6 C-5.34 6 -4.68 6 -4 6 C-4 4.68 -4 3.36 -4 2 C-2.125 0.9375 -2.125 0.9375 0 0 Z " fill="#E65E63" transform="translate(321,234)"/>
<path d="M0 0 C2.475 0.99 2.475 0.99 5 2 C5.1875 4.375 5.1875 4.375 5 7 C1.3558226 9.4294516 -0.71241272 9.16179575 -5 9 C-5.66 7.02 -6.32 5.04 -7 3 C-4.525 4.98 -4.525 4.98 -2 7 C-0.00016466 6.20882096 -0.00016466 6.20882096 2 5 C2.33 4.01 2.66 3.02 3 2 C2.01 1.67 1.02 1.34 0 1 C0 0.67 0 0.34 0 0 Z " fill="#E24D60" transform="translate(303,318)"/>
<path d="M0 0 C1.32 0.66 2.64 1.32 4 2 C4 2.66 4 3.32 4 4 C5.32 4.66 6.64 5.32 8 6 C7.67 7.32 7.34 8.64 7 10 C2.7257442 8.4169423 0.73468206 5.49431596 -2 2 C-1.34 1.34 -0.68 0.68 0 0 Z " fill="#FED409" transform="translate(293,311)"/>
<path d="M0 0 C3.21524305 1.40844718 5.32183868 3.10344786 7.75 5.625 C8.67039062 6.57246094 8.67039062 6.57246094 9.609375 7.5390625 C10.29773438 8.26222656 10.29773438 8.26222656 11 9 C10.67 9.66 10.34 10.32 10 11 C8.2925002 9.71937515 6.62626404 8.38232443 5 7 C5 6.34 5 5.68 5 5 C3.68 4.67 2.36 4.34 1 4 C0.01 5.485 0.01 5.485 -1 7 C-1.66 5.68 -2.32 4.36 -3 3 C-2.01 2.01 -1.02 1.02 0 0 Z " fill="#FEBC4A" transform="translate(292,308)"/>
<path d="M0 0 C-2.61393435 2.75150985 -4.72007582 3.22757537 -8.37109375 3.328125 C-10.06006336 3.31752754 -11.74899399 3.29096451 -13.4375 3.25 C-14.28376953 3.24484375 -15.13003906 3.2396875 -16.00195312 3.234375 C-20.11598254 3.18282882 -23.98954617 3.02114225 -28 2 C-28 1.34 -28 0.68 -28 0 C-27.14277344 0.16113281 -26.28554687 0.32226562 -25.40234375 0.48828125 C-18.66244156 1.50197492 -5.03993718 -2.51996859 0 0 Z " fill="#E27194" transform="translate(266,280)"/>
<path d="M0 0 C0 0.66 0 1.32 0 2 C-3.50776784 3.60355101 -6.14354879 4.22036864 -10 4 C-9.67 5.65 -9.34 7.3 -9 9 C-12.31726155 8.42805835 -13.72635823 7.42999536 -16 5 C-14.08717875 4.15787744 -12.16957527 3.32661136 -10.25 2.5 C-9.18265625 2.0359375 -8.1153125 1.571875 -7.015625 1.09375 C-4 0 -4 0 0 0 Z " fill="#E36D92" transform="translate(230,133)"/>
<path d="M0 0 C1 3 1 3 -0.25 5.6875 C-1.11625 6.8321875 -1.11625 6.8321875 -2 8 C-2.99 8 -3.98 8 -5 8 C-5.33 9.32 -5.66 10.64 -6 12 C-8.31 12.33 -10.62 12.66 -13 13 C-12.319375 12.484375 -11.63875 11.96875 -10.9375 11.4375 C-4.66536718 6.4016446 -4.66536718 6.4016446 0 0 Z " fill="#E36F92" transform="translate(283,264)"/>
<path d="M0 0 C-2.51624171 1.15692746 -5.03723454 2.30057432 -7.5625 3.4375 C-8.26697266 3.76298828 -8.97144531 4.08847656 -9.69726562 4.42382812 C-14.18586918 6.4302546 -18.10006776 7.54284469 -23 8 C-20.6870518 5.6870518 -19.52095125 5.50419025 -16.375 4.875 C-15.55773437 4.70742188 -14.74046875 4.53984375 -13.8984375 4.3671875 C-13.27195312 4.24601562 -12.64546875 4.12484375 -12 4 C-12 3.34 -12 2.68 -12 2 C-10.56656 1.46809459 -9.12804633 0.94984742 -7.6875 0.4375 C-6.88699219 0.14746094 -6.08648437 -0.14257812 -5.26171875 -0.44140625 C-3 -1 -3 -1 0 0 Z " fill="#E25068" transform="translate(312,347)"/>
<path d="M0 0 C1.32 0.66 2.64 1.32 4 2 C2.85760183 3.33627775 1.71098945 4.66895388 0.5625 6 C-0.07558594 6.7425 -0.71367187 7.485 -1.37109375 8.25 C-1.90863281 8.8275 -2.44617188 9.405 -3 10 C-3.33 10 -3.66 10 -4 10 C-4.25 7.25 -4.25 7.25 -4 4 C-2 1.625 -2 1.625 0 0 Z " fill="#F1C497" transform="translate(219,225)"/>
<path d="M0 0 C5.28 0 10.56 0 16 0 C17.27351308 2.54702616 16.80191925 3.4282945 16.0625 6.125 C15.86785156 6.84945312 15.67320312 7.57390625 15.47265625 8.3203125 C15.31667969 8.87460938 15.16070312 9.42890625 15 10 C14.34 9.01 13.68 8.02 13 7 C13.33 5.35 13.66 3.7 14 2 C7.07 1.505 7.07 1.505 0 1 C0 0.67 0 0.34 0 0 Z " fill="#EB90AC" transform="translate(257,127)"/>
<path d="M0 0 C0.53625 0.226875 1.0725 0.45375 1.625 0.6875 C0.635 1.3475 -0.355 2.0075 -1.375 2.6875 C-1.705 3.6775 -2.035 4.6675 -2.375 5.6875 C-4.025 6.0175 -5.675 6.3475 -7.375 6.6875 C-7.705 5.3675 -8.035 4.0475 -8.375 2.6875 C-2.95961538 -0.38942308 -2.95961538 -0.38942308 0 0 Z " fill="#E7242D" transform="translate(234.375,318.3125)"/>
<path d="M0 0 C1.32 0.33 2.64 0.66 4 1 C4.103125 1.78375 4.20625 2.5675 4.3125 3.375 C4.77595022 6.33045181 4.77595022 6.33045181 8 8 C9.1875 11.125 9.1875 11.125 10 14 C9.01 14.495 9.01 14.495 8 15 C6.66407203 12.6889639 5.33115569 10.37628245 4 8.0625 C3.6184375 7.40314453 3.236875 6.74378906 2.84375 6.06445312 C0 1.11328125 0 1.11328125 0 0 Z " fill="#EDC59C" transform="translate(144,307)"/>
<path d="M0 0 C0.8353125 0.37125 0.8353125 0.37125 1.6875 0.75 C1.6875 1.74 1.6875 2.73 1.6875 3.75 C-3.9375 6.75 -3.9375 6.75 -7.3125 6.75 C-7.3125 5.76 -7.3125 4.77 -7.3125 3.75 C-3.21493902 -0.34756098 -3.21493902 -0.34756098 0 0 Z " fill="#FED410" transform="translate(334.3125,230.25)"/>
<path d="M0 0 C0.144375 0.598125 0.28875 1.19625 0.4375 1.8125 C0.8872439 3.56150404 1.42892341 5.28677023 2 7 C1.195625 7.61875 0.39125 8.2375 -0.4375 8.875 C-3.03874519 10.74164041 -3.03874519 10.74164041 -4 13 C-4.66 13 -5.32 13 -6 13 C-4.58707905 8.1725201 -2.57025846 4.2837641 0 0 Z " fill="#EFC59A" transform="translate(148,194)"/>
<path d="M0 0 C1.99897128 0.33944795 3.99875639 0.67421616 6 1 C6 1.33 6 1.66 6 2 C-0.73742646 2.11044961 -7.29980211 1.70132913 -14 1 C-14 2.98 -14 4.96 -14 7 C-14.33 7 -14.66 7 -15 7 C-15 4.69 -15 2.38 -15 0 C-4.68624833 -1.30173565 -4.68624833 -1.30173565 0 0 Z " fill="#D35E8B" transform="translate(304,178)"/>
<path d="M0 0 C0.33 0.66 0.66 1.32 1 2 C0.22265625 3.9453125 0.22265625 3.9453125 -0.9375 6.125 C-1.31777344 6.84945312 -1.69804687 7.57390625 -2.08984375 8.3203125 C-2.54037109 9.15175781 -2.54037109 9.15175781 -3 10 C-3.99 10 -4.98 10 -6 10 C-6.33 10.99 -6.66 11.98 -7 13 C-7.66 13 -8.32 13 -9 13 C-7.50923566 9.7173068 -5.61379679 7.06922559 -3.375 4.25 C-2.74335938 3.45078125 -2.11171875 2.6515625 -1.4609375 1.828125 C-0.97882813 1.22484375 -0.49671875 0.6215625 0 0 Z " fill="#E85A78" transform="translate(176,167)"/>
<path d="M0 0 C1.98 0.66 3.96 1.32 6 2 C5.67 3.65 5.34 5.3 5 7 C1.59068103 8.13643966 0.99664544 7.86747764 -2.1875 6.5625 C-2.90292969 6.27503906 -3.61835938 5.98757813 -4.35546875 5.69140625 C-5.16951172 5.34916016 -5.16951172 5.34916016 -6 5 C-2.28272326 3.86416544 -0.52948291 4.33329974 3 6 C1.515 3.03 1.515 3.03 0 0 Z " fill="#C7B1CE" transform="translate(337,279)"/>
<path d="M0 0 C0.33 0.99 0.66 1.98 1 3 C0.360625 3.268125 -0.27875 3.53625 -0.9375 3.8125 C-3.33131686 4.88667752 -3.33131686 4.88667752 -4 8 C-5.98 8 -7.96 8 -10 8 C-8.76736651 4.30209954 -7.79947549 4.0645154 -4.4375 2.3125 C-3.61121094 1.87550781 -2.78492188 1.43851562 -1.93359375 0.98828125 C-1.29550781 0.66214844 -0.65742188 0.33601563 0 0 Z " fill="#F0A667" transform="translate(323,341)"/>
<path d="M0 0 C0.99 0.33 1.98 0.66 3 1 C3 2.32 3 3.64 3 5 C4.0551021 6.74668165 4.0551021 6.74668165 5.5 8.25 C6.325 9.1575 7.15 10.065 8 11 C7.34 11.66 6.68 12.32 6 13 C5.01 13 4.02 13 3 13 C2.814375 11.576875 2.814375 11.576875 2.625 10.125 C2.28312823 6.91332809 2.28312823 6.91332809 0 5 C-0.125 2.375 -0.125 2.375 0 0 Z " fill="#E75962" transform="translate(288,309)"/>
<path d="M0 0 C0.33 0 0.66 0 1 0 C0.45162532 5.20955943 -0.18837986 10.06836739 -2 15 C-2.99 15.33 -3.98 15.66 -5 16 C-4.54548816 14.26982492 -4.08621143 12.54090123 -3.625 10.8125 C-3.36976563 9.84957031 -3.11453125 8.88664063 -2.8515625 7.89453125 C-2.05233704 5.17789793 -1.0968638 2.60862825 0 0 Z " fill="#ECC49D" transform="translate(141,208)"/>
<path d="M0 0 C0.66 0 1.32 0 2 0 C2 1.32 2 2.64 2 4 C2.66 4 3.32 4 4 4 C5.25664978 6.90600261 6 8.79604584 6 12 C6.66 12 7.32 12 8 12 C8 13.98 8 15.96 8 18 C0.52173913 6.7826087 0.52173913 6.7826087 0 0 Z " fill="#D46491" transform="translate(193,271)"/>
<path d="M0 0 C0 0.66 0 1.32 0 2 C-0.804375 2.12375 -1.60875 2.2475 -2.4375 2.375 C-3.7059375 2.684375 -3.7059375 2.684375 -5 3 C-5.33 3.66 -5.66 4.32 -6 5 C-9.3 4.67 -12.6 4.34 -16 4 C-13.09961601 2.549808 -11.03884551 1.62284089 -8 0.875 C-7.34 0.70742187 -6.68 0.53984375 -6 0.3671875 C-4 0 -4 0 0 0 Z " fill="#E36B8F" transform="translate(246,129)"/>
<path d="M0 0 C1.98 0.495 1.98 0.495 4 1 C4 1.66 4 2.32 4 3 C4.99 3.33 5.98 3.66 7 4 C7.33 4.99 7.66 5.98 8 7 C7.01 7.495 7.01 7.495 6 8 C6 7.01 6 6.02 6 5 C5.01 4.67 4.02 4.34 3 4 C2.67 4.66 2.34 5.32 2 6 C1.01 6 0.02 6 -1 6 C-0.67 4.02 -0.34 2.04 0 0 Z " fill="#E85984" transform="translate(311,166)"/>
<path d="M0 0 C1.98 0.495 1.98 0.495 4 1 C3.2884375 2.546875 3.2884375 2.546875 2.5625 4.125 C1.15477612 7.38534162 0.43164502 10.46051083 0 14 C-0.33 14 -0.66 14 -1 14 C-1.18451025 4.58997722 -1.18451025 4.58997722 0 0 Z " fill="#F7B0A5" transform="translate(212,234)"/>
<path d="M0 0 C5.47932789 1.54545146 10.11429181 4.15543212 15 7 C11.47360331 8.17546556 10.08522256 7.54155595 6.78515625 6.03515625 C4.06306425 4.45670027 2.07978309 2.33187801 0 0 Z " fill="#FEAE96" transform="translate(201,345)"/>
<path d="M0 0 C1.8871875 0.061875 1.8871875 0.061875 3.8125 0.125 C4.5 1.9375 4.5 1.9375 4.8125 4.125 C3.375 5.875 3.375 5.875 1.8125 7.125 C1.4825 5.475 1.1525 3.825 0.8125 2.125 C-1.95026177 2.64768466 -4.5135876 3.23369587 -7.1875 4.125 C-7.1875 3.465 -7.1875 2.805 -7.1875 2.125 C-4.09861478 0.06574319 -3.47814073 -0.1140374 0 0 Z " fill="#F64C71" transform="translate(241.1875,309.875)"/>
<path d="M0 0 C0.66 0 1.32 0 2 0 C2.34833144 4.87664009 1.41685712 7.77050005 -1 12 C-1.66 12 -2.32 12 -3 12 C-2.25749403 7.91621717 -1.17076699 3.98060777 0 0 Z " fill="#EBAD7E" transform="translate(356,296)"/>
<path d="M0 0 C1.32 0.66 2.64 1.32 4 2 C4 2.66 4 3.32 4 4 C4.66 4.33 5.32 4.66 6 5 C6 5.66 6 6.32 6 7 C6.66 7 7.32 7 8 7 C7.67 7.66 7.34 8.32 7 9 C4.03 7.02 1.06 5.04 -2 3 C-1.01 2.67 -0.02 2.34 1 2 C0.67 1.34 0.34 0.68 0 0 Z " fill="#EEC39B" transform="translate(180,346)"/>
<path d="M0 0 C2.9719385 1.12451727 5.33440687 2.22293791 8 4 C8 4.66 8 5.32 8 6 C8.99 6.33 9.98 6.66 11 7 C11.33 7.99 11.66 8.98 12 10 C8.78727751 8.56006357 6.3793336 6.76981628 3.75 4.4375 C3.04359375 3.81746094 2.3371875 3.19742187 1.609375 2.55859375 C1.07828125 2.04425781 0.5471875 1.52992188 0 1 C0 0.67 0 0.34 0 0 Z " fill="#E35F74" transform="translate(179,326)"/>
<path d="M0 0 C0.66 0 1.32 0 2 0 C2.6987693 1.76641683 3.38366583 3.53832664 4.0625 5.3125 C4.44535156 6.29863281 4.82820312 7.28476562 5.22265625 8.30078125 C6 11 6 11 5 14 C4.16235732 12.04350603 3.33000941 10.08474444 2.5 8.125 C2.0359375 7.03445313 1.571875 5.94390625 1.09375 4.8203125 C0 2 0 2 0 0 Z " fill="#ECC7A3" transform="translate(138,292)"/>
<path d="M0 0 C1.22602512 3.67807537 0.70295577 5.88243927 0.0625 9.6875 C-0.13214844 10.86699219 -0.32679688 12.04648438 -0.52734375 13.26171875 C-0.68332031 14.16535156 -0.83929688 15.06898438 -1 16 C-1.33 16 -1.66 16 -2 16 C-2.05384521 13.70858714 -2.09272087 11.41681812 -2.125 9.125 C-2.14820313 7.84882813 -2.17140625 6.57265625 -2.1953125 5.2578125 C-2 2 -2 2 0 0 Z " fill="#E55D74" transform="translate(212,231)"/>
<path d="M0 0 C4.455 1.98 4.455 1.98 9 4 C9 4.33 9 4.66 9 5 C6.36 5.33 3.72 5.66 1 6 C0.67 4.02 0.34 2.04 0 0 Z " fill="#E36A8E" transform="translate(325,180)"/>
<path d="M0 0 C1.41750563 0.11509661 2.83401169 0.24253658 4.25 0.375 C5.03890625 0.44460938 5.8278125 0.51421875 6.640625 0.5859375 C9.085877 1.01507113 10.84836903 1.78600638 13 3 C13 3.66 13 4.32 13 5 C11.39402675 4.54803755 9.79027492 4.08817673 8.1875 3.625 C6.84751953 3.24214844 6.84751953 3.24214844 5.48046875 2.8515625 C3 2 3 2 0 0 Z " fill="#E7B588" transform="translate(204,363)"/>
<path d="M0 0 C-2.51699845 2.51699845 -4.57554146 3.10964078 -8 4 C-10.1953125 3.55078125 -10.1953125 3.55078125 -12 3 C-10.75823305 2.29773859 -9.50614401 1.61370891 -8.25 0.9375 C-7.20585937 0.36322266 -7.20585937 0.36322266 -6.140625 -0.22265625 C-3.63859372 -1.1312406 -2.4667645 -0.88336837 0 0 Z " fill="#FCA991" transform="translate(242,206)"/>
<path d="M0 0 C1.32 0 2.64 0 4 0 C4.33 3.3 4.66 6.6 5 10 C4.34 10 3.68 10 3 10 C3.0825 9.2575 3.165 8.515 3.25 7.75 C2.92894816 4.21842973 1.64734383 3.23369636 -1 1 C-0.67 0.67 -0.34 0.34 0 0 Z " fill="#F4496D" transform="translate(239,168)"/>
<path d="M0 0 C5 6.36363636 5 6.36363636 5 11 C4.34 11 3.68 11 3 11 C0.84694043 7.14243493 -0.39253254 4.44870215 0 0 Z " fill="#BAB5CF" transform="translate(195,278)"/>
<path d="M0 0 C0.66 0.66 1.32 1.32 2 2 C1.34 3.32 0.68 4.64 0 6 C0.66 6 1.32 6 2 6 C2 6.66 2 7.32 2 8 C-0.475 7.01 -0.475 7.01 -3 6 C-2.67 4.68 -2.34 3.36 -2 2 C-1.34 2 -0.68 2 0 2 C0 1.34 0 0.68 0 0 Z " fill="#E2457C" transform="translate(341,273)"/>
<path d="M0 0 C0.12375 0.639375 0.2475 1.27875 0.375 1.9375 C0.684375 2.9584375 0.684375 2.9584375 1 4 C1.66 4.33 2.32 4.66 3 5 C2.34 5.66 1.68 6.32 1 7 C1 6.34 1 5.68 1 5 C-1.33075929 5.95865509 -1.33075929 5.95865509 -3 9 C-3 4.72290301 -2.29379749 3.44069624 0 0 Z " fill="#F1C398" transform="translate(153,186)"/>
<path d="M0 0 C0.33 0 0.66 0 1 0 C1.05395478 1.62463842 1.09277195 3.24978541 1.125 4.875 C1.14820313 5.77992188 1.17140625 6.68484375 1.1953125 7.6171875 C1 10 1 10 -1 12 C-2.45606519 7.47907032 -1.27032841 4.48351204 0 0 Z " fill="#EF9B82" transform="translate(362,278)"/>
<path d="M0 0 C0.66 0 1.32 0 2 0 C0.84414715 3.91211733 -0.35534962 6.8745041 -3 10 C-2.25 2.25 -2.25 2.25 0 0 Z " fill="#E25F72" transform="translate(216,220)"/>
<path d="M0 0 C1.4606285 2.64738916 2 3.89448334 2 7 C0.68 6.67 -0.64 6.34 -2 6 C-2 5.34 -2 4.68 -2 4 C-2.66 3.34 -3.32 2.68 -4 2 C-2.68 1.34 -1.36 0.68 0 0 Z " fill="#F0BF90" transform="translate(268,214)"/>
<path d="M0 0 C1.65 0.33 3.3 0.66 5 1 C4.67 2.32 4.34 3.64 4 5 C2.35 4.67 0.7 4.34 -1 4 C-0.67 2.68 -0.34 1.36 0 0 Z " fill="#EF7966" transform="translate(188,213)"/>
<path d="M0 0 C0 0.66 0 1.32 0 2 C-0.99 2 -1.98 2 -3 2 C-3 2.66 -3 3.32 -3 4 C-3.66 4 -4.32 4 -5 4 C-5 4.66 -5 5.32 -5 6 C-6.65 6 -8.3 6 -10 6 C-7.35570758 3.077361 -4.105808 0 0 0 Z " fill="#E47798" transform="translate(210,141)"/>
<path d="M0 0 C0.33 0 0.66 0 1 0 C1.33 2.31 1.66 4.62 2 7 C-0.475 8.485 -0.475 8.485 -3 10 C-2.01 6.7 -1.02 3.4 0 0 Z " fill="#E95E87" transform="translate(285,260)"/>
<path d="M0 0 C0.66 0 1.32 0 2 0 C2 1.98 2 3.96 2 6 C-1.16115776 4.63016497 -1.9927092 4.0109362 -4 1 C-2.68 1.33 -1.36 1.66 0 2 C0 1.34 0 0.68 0 0 Z " fill="#E95C79" transform="translate(277,209)"/>
<path d="M0 0 C5.75 0.875 5.75 0.875 8 2 C8 2.66 8 3.32 8 4 C6.02 4 4.04 4 2 4 C2 3.34 2 2.68 2 2 C1.34 1.34 0.68 0.68 0 0 Z " fill="#EC608A" transform="translate(248,128)"/>
<path d="M0 0 C1.65 0 3.3 0 5 0 C5.33 0.66 5.66 1.32 6 2 C3 4 3 4 0 4 C0 2.68 0 1.36 0 0 Z " fill="#FED210" transform="translate(321,237)"/>
<path d="M0 0 C0.99 0.33 1.98 0.66 3 1 C3 2.65 3 4.3 3 6 C1.35 6.33 -0.3 6.66 -2 7 C-1.67 6.34 -1.34 5.68 -1 5 C-0.34 5 0.32 5 1 5 C0.67 3.35 0.34 1.7 0 0 Z " fill="#EA6264" transform="translate(336,229)"/>
<path d="M0 0 C-2.97 1.65 -5.94 3.3 -9 5 C-8.67 3.68 -8.34 2.36 -8 1 C-4.70594381 -0.82039948 -3.63772813 -1.21257604 0 0 Z " fill="#F3C5A2" transform="translate(233,220)"/>
<path d="M0 0 C0.66 0.33 1.32 0.66 2 1 C-0.31 3.31 -2.62 5.62 -5 8 C-5.33 7.34 -5.66 6.68 -6 6 C-4 4 -2 2 0 0 Z " fill="#E26173" transform="translate(224,212)"/>
<path d="M0 0 C1.65 0 3.3 0 5 0 C4.67 1.65 4.34 3.3 4 5 C2.68 4.67 1.36 4.34 0 4 C0 2.68 0 1.36 0 0 Z " fill="#E72534" transform="translate(226,167)"/>
<path d="M0 0 C0.33 1.65 0.66 3.3 1 5 C-2.26954202 4.43628586 -3.82575883 3.50037734 -6 1 C-3 0 -3 0 0 0 Z " fill="#E4628A" transform="translate(220,137)"/>
<path d="M0 0 C3.465 1.98 3.465 1.98 7 4 C6.67 4.66 6.34 5.32 6 6 C4.125 5.8125 4.125 5.8125 2 5 C0.75 2.4375 0.75 2.4375 0 0 Z " fill="#E2678C" transform="translate(343,213)"/>
<path d="M0 0 C0.33 0 0.66 0 1 0 C1.36923077 6.52307692 1.36923077 6.52307692 -0.5 8.9375 C-0.995 9.288125 -1.49 9.63875 -2 10 C-1.125 2.25 -1.125 2.25 0 0 Z " fill="#E45E74" transform="translate(152,210)"/>
<path d="M0 0 C0.66 0 1.32 0 2 0 C1.875 1.875 1.875 1.875 1 4 C-2.0625 5.25 -2.0625 5.25 -5 6 C-3.38405168 3.95880212 -1.7143618 1.95927063 0 0 Z " fill="#FCB095" transform="translate(227,211)"/>
<path d="M0 0 C1.65 1.32 3.3 2.64 5 4 C3.02 4.99 3.02 4.99 1 6 C0.34 5.34 -0.32 4.68 -1 4 C-0.625 1.875 -0.625 1.875 0 0 Z " fill="#E6658C" transform="translate(278,159)"/>
</svg>
